<svg xmlns="http://www.w3.org/2000/svg" viewBox="0 0 1036.33 981.68"><defs><style>.cls-1,.cls-19,.cls-2,.cls-22,.cls-3{fill:#5c6bc0;}.cls-2{opacity:0.8;}.cls-3,.cls-4{opacity:0.2;}.cls-10,.cls-11,.cls-12,.cls-13,.cls-14,.cls-15,.cls-16,.cls-21,.cls-5,.cls-6,.cls-7,.cls-8,.cls-9{fill:none;}.cls-10,.cls-11,.cls-12,.cls-13,.cls-14,.cls-15,.cls-16,.cls-5,.cls-6,.cls-7,.cls-8,.cls-9{stroke:#5c6bc0;stroke-linecap:round;stroke-miterlimit:10;}.cls-5,.cls-6{stroke-width:4px;}.cls-6{stroke-dasharray:11.37 11.37;}.cls-7,.cls-8{stroke-width:4.62px;}.cls-8{stroke-dasharray:15.46 15.46;}.cls-10,.cls-9{stroke-width:4.44px;}.cls-10{stroke-dasharray:14.23 14.23;}.cls-11,.cls-12{stroke-width:5.59px;}.cls-12{stroke-dasharray:18.02 18.02;}.cls-13,.cls-14{stroke-width:2.58px;}.cls-14{stroke-dasharray:6.07 6.07;}.cls-15,.cls-16{stroke-width:4.17px;}.cls-16{stroke-dasharray:12.44 12.44;}.cls-17,.cls-18{fill:#fff;}.cls-18,.cls-22,.cls-23{opacity:0.5;}.cls-19{opacity:0.6;}.cls-20{fill:#f1ff61;}</style></defs><g id="Layer_2" data-name="Layer 2"><g id="Layer_2-2" data-name="Layer 2"><path class="cls-1" d="M624.24,506.93c50.69-18.13,85-43.56,88.71-65,2.85-16.31-4.45-26.36-4.45-26.36-6-8.21-15-11.6-18.39-12.8-29.9-10.73-65.3,11.18-65.87,19.05,0,.42-.12,3-.17,6-.06,3.81,0,6.62,0,7.22C624.13,438.81,624.19,457.64,624.24,506.93Z"/><path class="cls-1" d="M225,954.81q-27,3-55.71,7.5c-34.47,5.45-66.86,12.08-97,19.37L13.19,746,99.7,684.07q3.17,21.36,7.52,44.14c3.34,17.35,7,34,10.84,49.79,0,0,2.17,14.92,14.26,50.37,3.21,9.42,6.38,17.75,14.45,24.12,2,1.58,7.76,5.77,24.12,8.57a136.44,136.44,0,0,0,41.27.63c.09,13.29,0,24-.17,31.29-.18,9.53.54,19.07.17,28.59a48.58,48.58,0,0,0,2,17.95,30.45,30.45,0,0,0,5.37,10.14A28.46,28.46,0,0,0,225,954.81Z"/><path class="cls-2" d="M212.16,861.69c-36.13,6.4-55.08-2.73-64.34-9.19-27.53-19.18-35.07-68.69-49-166.93-1-7.24-1.81-13.16-2.29-16.85,21.77-27.8,33.54-52.69,40.21-69.94,26.43-68.33,34.08-124.66,34.08-124.66.67-16.21,4.05-34.5,14-37.56,8.91-2.74,20.09,8.18,27,16.24Q212,657.25,212.16,861.69Z"/><path class="cls-1" d="M635,537.74c-4.47-1.06-119.48,62.81-81.19,93.45s114.9-30.64,114.9-30.64S693.18,551.53,635,537.74Z"/><path class="cls-1" d="M565.77,738.68a58.24,58.24,0,0,0,17.88-.51c9.32-1.76,15.29-5.35,25-10.73,21.21-11.73,18.89-9.07,29.05-15.24,23.91-14.54,35.87-21.81,40.14-34.29,5.89-17.22-1.54-41.6-17.3-49.62-13.63-6.94-29,.64-55,13.88A280.47,280.47,0,0,0,546,683.27a33.27,33.27,0,0,0-7,18.39C538.27,716.47,548.89,731.2,565.77,738.68Z"/><path class="cls-1" d="M565.25,805.49c7.2,3.83,15.26,2.65,25.8-.69,26.11-8.26,92.44-58.51,70.69-41.87h0c6.85-13.41,6.69-28.17-.73-38.3-6.89-9.39-17.74-11.67-21.7-12.25-7.81-1.14-13.91.72-53.88,26.81-18.47,12-28.4,19-32.42,31.4a31.1,31.1,0,0,0-1.28,14.56C551.83,785.77,554.31,799.68,565.25,805.49Z"/><path class="cls-3" d="M362.77,108.3c4.48-2,14.9-7.61,20.62-19.41a37.59,37.59,0,0,0,3.06-9.19c-16.48-10.65-25.65-26.79-23-41.06,3-16.31,20.39-24,30.2-28.4C427.1-4.65,480.23-1.4,496.41,30c.78,1.5,9.7,19.49,1.7,36.08C487,89.21,447.35,100.46,401.48,85.3Z"/><path class="cls-1" d="M361.1,109.22a4.15,4.15,0,0,0,.42-.4,1.57,1.57,0,0,1,.4-.28l1.09-.63c.71-.42,1.42-.86,2.12-1.32q2.08-1.36,4.05-2.91a53.15,53.15,0,0,0,7.19-6.88,51,51,0,0,0,5.68-8.15A49.32,49.32,0,0,0,386,79.54l.21.58a70,70,0,0,1-8.63-6.33,60.94,60.94,0,0,1-7.4-7.75,48.42,48.42,0,0,1-5.61-9.18,34.93,34.93,0,0,1-3.06-10.37,28.34,28.34,0,0,1,5.34-20.7c4.35-5.92,10.5-10.1,16.79-13.46,3.17-1.69,6.4-3.17,9.67-4.59a83.73,83.73,0,0,1,10.13-3.63A103.86,103.86,0,0,1,446,.92a90.93,90.93,0,0,1,10.58,2.14,78,78,0,0,1,10.24,3.56,62.83,62.83,0,0,1,9.57,5.2,49.46,49.46,0,0,1,15.16,15.71,55.27,55.27,0,0,1,4.66,9.94,43.09,43.09,0,0,1,2.3,10.84,30.92,30.92,0,0,1-1.17,11.21,30.1,30.1,0,0,1-5.23,10A39.49,39.49,0,0,1,484,77.2a63.93,63.93,0,0,1-19.82,9.17,99.41,99.41,0,0,1-21.34,3.4,146.44,146.44,0,0,1-42.58-4.23l1-.16c-6.52,3.94-13,7.78-19.7,11.62S368,104.94,361.1,109.22Zm-.35.2c6.37-4.07,12.73-8.33,19.19-12.81s13.26-9,20-13.4l.42-.27.54.11c13.77,2.75,27.85,4.15,41.78,3.08,3.48-.25,6.93-.71,10.35-1.28a101.11,101.11,0,0,0,10.12-2.35,59.65,59.65,0,0,0,18.5-8.66A37.8,37.8,0,0,0,488.93,67a26.19,26.19,0,0,0,4.61-8.65c2-6.28,1.29-13.24-.85-19.67a51.4,51.4,0,0,0-4.21-9.33,45.88,45.88,0,0,0-13.9-14.79,57.84,57.84,0,0,0-9-5.05A76.18,76.18,0,0,0,455.82,6a88.53,88.53,0,0,0-10.2-2.18A101.33,101.33,0,0,0,404.1,6.46a82.08,82.08,0,0,0-9.9,3.42c-3.23,1.36-6.46,2.8-9.56,4.4-6.17,3.2-12.08,7.18-16.24,12.68a26.67,26.67,0,0,0-4.53,9.13,26.94,26.94,0,0,0-.75,10.2c.76,6.89,3.94,13.36,8.09,18.94a58.89,58.89,0,0,0,7.12,7.69,68.19,68.19,0,0,0,8.39,6.35l.33.22-.12.36a49.88,49.88,0,0,1-4.14,9.22,51.68,51.68,0,0,1-5.89,8.19,53.25,53.25,0,0,1-7.39,6.85c-1.33,1-2.71,2-4.13,2.88-.71.45-1.43.88-2.15,1.3l-1.1.61a3.78,3.78,0,0,1-.7.32C361.17,109.3,361,109.35,360.75,109.42Z"/><circle class="cls-1" cx="409.52" cy="51.93" r="5.87"/><circle class="cls-1" cx="427.56" cy="51.93" r="5.87"/><circle class="cls-1" cx="444.18" cy="51.93" r="5.87"/><g id="çegale-lavoro"><path class="cls-1" d="M689.77,111.66a45.85,45.85,0,0,1,4.7-11.63A43.71,43.71,0,0,1,698,94.78a44.86,44.86,0,0,1,4.25-4.68,46.88,46.88,0,0,1,22-12.2l1.56-.36c.53-.12,1.06-.16,1.59-.25l1.59-.23.79-.11.8-.06a43.13,43.13,0,0,1,6.43,0,41.54,41.54,0,0,1,6.38.91,46.19,46.19,0,0,1,6.19,1.82,51.45,51.45,0,0,1,11.37,6,55.4,55.4,0,0,1,5,4,44.78,44.78,0,0,1,4.58,4.65l-3.08-.18A55.47,55.47,0,0,1,780,84.74a50.15,50.15,0,0,1,14.74-5.39,45.87,45.87,0,0,1,15.81-.2,48.36,48.36,0,0,1,15,5.08,52.73,52.73,0,0,1,12.71,9.46l1.35,1.47c.44.49.92,1,1.32,1.49l1.25,1.56c.21.26.43.52.62.79l.57.82,1.15,1.65c.37.55.7,1.14,1,1.71l.52.87.26.43.23.45.91,1.81a18.1,18.1,0,0,1,.82,1.86l.77,1.89c.43,1.3.88,2.59,1.18,3.93a38.32,38.32,0,0,1,1.16,8.11,46,46,0,0,1-.42,8.14,58.93,58.93,0,0,1-1.76,7.84A76.76,76.76,0,0,1,843,153a123.51,123.51,0,0,1-8.25,13c-2.95,4.16-6.09,8.15-9.26,12.06q-2.4,2.92-4.82,5.8l-2.43,2.87c-.81,1-1.66,1.92-2.49,2.88a180.82,180.82,0,0,1-21.91,21.06c-1,.79-2,1.59-3,2.36s-2,1.54-3,2.3-2,1.49-3.07,2.22-2.06,1.45-3.11,2.15q-6.26,4.25-12.87,7.88a.38.38,0,0,1-.41-.63c4-3.05,7.85-6.18,11.63-9.41,1-.81,1.88-1.64,2.82-2.45l2.76-2.49c.92-.83,1.83-1.69,2.74-2.52s1.79-1.72,2.68-2.58a220,220,0,0,0,19.8-22c.76-1,1.52-1.93,2.28-2.92l2.27-3q2.28-3,4.51-5.94,4.49-5.94,8.65-12c1.37-2,2.71-4.07,4-6.14s2.51-4.15,3.66-6.26,2.21-4.26,3.2-6.42,1.81-4.38,2.56-6.59a43.59,43.59,0,0,0,2.32-13.55,31.75,31.75,0,0,0-.71-6.74c-.2-1.11-.55-2.2-.85-3.29l-.59-1.6a14.72,14.72,0,0,0-.65-1.59,42.12,42.12,0,0,0-7.66-11.57,46.1,46.1,0,0,0-11.05-8.65,43.2,43.2,0,0,0-13.17-4.82,40.61,40.61,0,0,0-14-.15,46.07,46.07,0,0,0-13.45,4.5A51.15,51.15,0,0,0,770.41,97l-1.68,1.59-1.4-1.77a42.82,42.82,0,0,0-4-4.32,49.85,49.85,0,0,0-4.59-3.86,48.39,48.39,0,0,0-10.38-6,41.52,41.52,0,0,0-5.68-1.88,37.77,37.77,0,0,0-5.9-1,40,40,0,0,0-6-.16l-.75,0-.75.08-1.5.17c-.5.06-1,.08-1.5.18l-1.48.29a44.74,44.74,0,0,0-21.36,11,44.13,44.13,0,0,0-12.93,20.52.37.37,0,0,1-.46.25A.37.37,0,0,1,689.77,111.66Z"/><path class="cls-1" d="M674.17,130.67l18-.48,18-.42.66,0,.41.6,15.94,23.22-3.43.42,7.89-24.45,8-24.43,2.6-8,2.83,8,5.31,15.09,5.41,15.06c1.81,5,3.62,10,5.33,15.08l1.3,3.79,1.25,3.79,1.25,3.8,1.2,3.82-7.28.21,1.35-4.72,1.39-4.7c.92-3.13,1.88-6.26,2.83-9.39s1.94-6.24,2.93-9.36,2-6.23,3-9.34l.62-1.88,1.72.09c2.23.11,4.47.26,6.7.41s4.46.28,6.7.46,4.46.33,6.69.53,4.47.41,6.7.65a.36.36,0,0,1,.33.41.38.38,0,0,1-.33.34q-3.34.36-6.7.64c-2.23.21-4.46.36-6.69.54s-4.47.31-6.7.46-4.47.29-6.7.41l2.34-1.8c-.67,3.21-1.36,6.4-2.07,9.6s-1.44,6.38-2.17,9.57-1.49,6.36-2.27,9.54L767.43,163l-1.2,4.76L763.15,180,759,168l-1.32-3.77-1.27-3.79-1.27-3.8-1.23-3.8c-1.64-5.07-3.2-10.18-4.74-15.28l-4.67-15.31-4.77-15.27,5.43,0-8.78,24.15-8.86,24.12L726.09,159,724,155.67l-14.86-23.93,1.07.58-18-.42-18-.48a.37.37,0,0,1-.36-.38A.37.37,0,0,1,674.17,130.67Z"/><path class="cls-3" d="M768.63,227.25s82.31-57.51,75.89-108.91c-3.81-30.48-48.58-50.16-75.73-21.27Z"/></g><rect class="cls-3" x="799.89" y="436.13" width="236.44" height="146.04"/><path class="cls-1" d="M964.37,436.13l-4.68-.13c.32-11.49.51-24.3.33-29.1-4.5.26-15.17.31-41.62.18-17.15-.09-34.42-.25-40.59-.31v29.29h-4.67V402l2.36,0c31.58.33,79.12.63,85.41.15l.59-.58,1.5.61C964.83,403,965.27,403.22,964.37,436.13Z"/><g id="Soccorso"><g class="cls-4"><path class="cls-1" d="M950.1,497.72H930.41v-20H906.93s.09,8.88.17,20H886.93v23.49s9.05-.1,20.29-.18c0,10.9-.05,19.63-.29,19.88-.67.66,23.48,0,23.48,0v-20c10.81,0,19.44,0,19.69.29C950.76,521.87,950.1,497.72,950.1,497.72Z"/></g><path class="cls-1" d="M950,497.86c-6.6.1-13.1.25-19.55.32a.46.46,0,0,1-.46-.45h0l-.23-20,.69.7-23.48.27,1-1,.36,20a1.14,1.14,0,0,1-1.12,1.17h0l-20.17.18,1.34-1.34.22,23.49-1.57-1.56,20.29-.4A1.75,1.75,0,0,1,909,521V521l.12,10.88c0,1.81,0,3.63,0,5.46,0,.92,0,1.82-.07,2.79a8.57,8.57,0,0,1-.08.86v.08l0,.13,0,.14,0,.1a2.39,2.39,0,0,1-.16.38,2.08,2.08,0,0,1-.24.34.86.86,0,1,0-.06.08,2,2,0,0,0,.25-.33,2.14,2.14,0,0,0,.21-.51,1.94,1.94,0,0,0,0-.79,1.85,1.85,0,0,0-.21-.64,1.83,1.83,0,0,0-.28-.39,1.39,1.39,0,0,0-.21-.21l-.17-.11a.72.72,0,0,0-.21-.12l-.17-.07-.13,0h.07c.3,0,.76.06,1.18.07,1.74.05,3.55,0,5.35,0l5.41,0,10.84-.16-1.89,1.95.14-10c0-3.33.1-6.66.17-10v-.07a1.6,1.6,0,0,1,1.63-1.56c3.61.07,7.22.13,10.83.26,1.8.06,3.61.12,5.42.21.91,0,1.81.09,2.76.18l.37,0,.2,0a1.58,1.58,0,0,1,.29,0l.1,0a1.28,1.28,0,0,1,.43.23.36.36,0,0,1,.09.08l-.17-.15a1.62,1.62,0,0,0-.25-.11,1.14,1.14,0,0,0-.45-.06,1.13,1.13,0,0,0-.37.1.81.81,0,0,0-.26.17l-.12.11a.58.58,0,0,0-.07.11.41.41,0,0,0-.07.11l0,.05,0,.06h0a1.49,1.49,0,0,0,0-.22c.06-.38.09-.83.12-1.27.12-1.76.17-3.57.22-5.36l.15-5.4.13-5.41.07-2.71,0-1.35,0-.68v-.59s0,0,0,0A.09.09,0,0,0,950,497.86Zm.27-.28.06.12a.58.58,0,0,1,0,.1v.26l0,.33.06.68.1,1.35.19,2.7c.12,1.8.24,3.6.33,5.41.2,3.61.39,7.2.4,10.86,0,.47,0,.92,0,1.43,0,.14,0,.26-.06.45l0,.18a.79.79,0,0,1,0,.13.69.69,0,0,1,0,.1.64.64,0,0,1-.08.14.61.61,0,0,1-.09.12l-.13.14a1.17,1.17,0,0,1-.28.17,1.1,1.1,0,0,1-.86,0,1.23,1.23,0,0,1-.26-.13,1,1,0,0,1-.2-.15.46.46,0,0,1,.07.07.9.9,0,0,0,.36.19h-.46c-.86,0-1.76,0-2.65,0-1.79,0-3.59,0-5.39.07l-10.81.23,1.63-1.63c.07,3.33.14,6.66.18,10l.13,10a1.92,1.92,0,0,1-1.84,1.94h0c-3.63.12-7.25.24-10.88.31s-7.24.12-11,0c-.48,0-.93,0-1.53-.11l-.26,0a2.73,2.73,0,0,1-.46-.11l-.25-.1a2,2,0,0,1-.25-.14l-.18-.13a2.39,2.39,0,0,1-.23-.22,1.52,1.52,0,0,1-.29-.41,1.93,1.93,0,0,1-.22-.65,2,2,0,0,1,.26-1.35,3,3,0,0,1,.27-.35l-.06.06a2.18,2.18,0,0,0-.22.31,2.52,2.52,0,0,0-.15.34v.06l0,.06v0h0c0-.07,0-.3,0-.5.05-.83.08-1.74.11-2.63.06-1.79.09-3.59.12-5.4l.16-10.85,1.79,1.78-20.28,0h0a1.53,1.53,0,0,1-1.54-1.54h0l.21-23.49v0a1.34,1.34,0,0,1,1.34-1.32l20.17.19L906,497.73v-20a1,1,0,0,1,1-1h0l23.48.28h0a.67.67,0,0,1,.67.69l-.23,20-.46-.46C937.09,497.34,943.71,497.49,950.23,497.58Z"/><g class="cls-4"><circle class="cls-1" cx="918.98" cy="509.47" r="45.96"/></g><path class="cls-1" d="M919,564.46a54.81,54.81,0,1,1,54.81-54.8A54.87,54.87,0,0,1,919,564.46Zm0-102.69a47.89,47.89,0,1,0,47.89,47.89A47.94,47.94,0,0,0,919,461.77Z"/></g><g class="cls-4"><line class="cls-1" x1="423.22" y1="187.27" x2="423.22" y2="95.7"/><line class="cls-5" x1="423.22" y1="187.27" x2="423.22" y2="181.27"/><line class="cls-6" x1="423.22" y1="169.91" x2="423.22" y2="107.38"/><line class="cls-5" x1="423.22" y1="101.7" x2="423.22" y2="95.7"/></g><g class="cls-4"><line class="cls-1" x1="768.63" y1="343.52" x2="768.63" y2="251.95"/><line class="cls-5" x1="768.63" y1="343.52" x2="768.63" y2="337.52"/><line class="cls-6" x1="768.63" y1="326.16" x2="768.63" y2="263.63"/><line class="cls-5" x1="768.63" y1="257.95" x2="768.63" y2="251.95"/></g><g class="cls-4"><line class="cls-1" x1="756.84" y1="343.52" x2="634.79" y2="343.52"/><line class="cls-7" x1="756.84" y1="343.52" x2="749.91" y2="343.52"/><line class="cls-8" x1="734.45" y1="343.52" x2="649.45" y2="343.52"/><line class="cls-7" x1="641.72" y1="343.52" x2="634.79" y2="343.52"/></g><g class="cls-4"><line class="cls-1" x1="51.69" y1="445.66" x2="51.69" y2="354.08"/><line class="cls-5" x1="51.69" y1="445.66" x2="51.69" y2="439.66"/><line class="cls-6" x1="51.69" y1="428.29" x2="51.69" y2="365.77"/><line class="cls-5" x1="51.69" y1="360.08" x2="51.69" y2="354.08"/></g><g class="cls-4"><line class="cls-1" x1="63.49" y1="445.66" x2="185.53" y2="445.66"/><line class="cls-7" x1="63.49" y1="445.66" x2="70.41" y2="445.66"/><line class="cls-8" x1="85.87" y1="445.66" x2="170.88" y2="445.66"/><line class="cls-7" x1="178.6" y1="445.66" x2="185.53" y2="445.66"/></g><g class="cls-4"><line class="cls-1" x1="741.69" y1="522.33" x2="628.73" y2="522.33"/><line class="cls-9" x1="741.69" y1="522.33" x2="735.02" y2="522.33"/><line class="cls-10" x1="720.79" y1="522.33" x2="642.51" y2="522.33"/><line class="cls-9" x1="635.4" y1="522.33" x2="628.73" y2="522.33"/></g><g class="cls-4"><line class="cls-1" x1="918.98" y1="643.94" x2="740.05" y2="643.94"/><line class="cls-11" x1="918.98" y1="643.94" x2="910.59" y2="643.94"/><line class="cls-12" x1="892.57" y1="643.94" x2="757.45" y2="643.94"/><line class="cls-11" x1="748.44" y1="643.94" x2="740.05" y2="643.94"/></g><g class="cls-4"><line class="cls-1" x1="918.91" y1="594.58" x2="918.91" y2="632.69"/><line class="cls-13" x1="918.91" y1="594.58" x2="918.91" y2="598.46"/><line class="cls-14" x1="918.91" y1="604.53" x2="918.91" y2="625.78"/><line class="cls-13" x1="918.91" y1="628.82" x2="918.91" y2="632.69"/></g><g class="cls-4"><line class="cls-1" x1="740.05" y1="530.08" x2="740.05" y2="629.64"/><line class="cls-15" x1="740.05" y1="530.08" x2="740.05" y2="536.33"/><line class="cls-16" x1="740.05" y1="548.77" x2="740.05" y2="617.16"/><line class="cls-15" x1="740.05" y1="623.38" x2="740.05" y2="629.64"/></g><rect class="cls-17" x="266.54" y="625.32" width="237.45" height="66.38" rx="7.15"/><rect class="cls-17" x="266.54" y="844.38" width="185.87" height="66.38" rx="7.15"/><rect class="cls-17" x="303.31" y="722.59" width="237.45" height="90.89" rx="7.15"/><g id="medico"><path class="cls-18" d="M573.83,435.74a158.16,158.16,0,0,1-38,103.06c-.44.52-.88,1-1.33,1.54a159.27,159.27,0,0,1-47.25,36.88q-2.86,1.47-5.8,2.82a158,158,0,0,1-30.08,10.34l-1.57.36A158.7,158.7,0,0,1,415,594.58h-1.49a159.31,159.31,0,0,1-28-2.72,157.28,157.28,0,0,1-33.24-10.14,158.86,158.86,0,1,1,221.57-146Z"/><path class="cls-1" d="M388.87,388.07l2.35-44.88,4.43,5.79,4.32,6.77,2.4,2.63a38.16,38.16,0,0,0-9,15.83V390.8Z"/><path class="cls-19" d="M440.54,409.57q.7,6.26,1.4,12.51-4,4.67-7.91,9.32l-.1,28.08c2.29,2.09,14,13.12,11.84,24.64-3.47,18.41-40.59,28.31-51.83,15.58-7.13-8.09-4.51-26.06,7.16-42.39V431l-7.41-7.65q-.39-6.9-.76-13.79s-5.88-1.53-6.9-8.94-.25-13.53,1.41-13.15,5.89,3.32,5.89,3.32a49.16,49.16,0,0,1,0-16.59c.55-3.15,1-5.58,2.59-8.36a43,43,0,0,1,5.81-7.35c13.21-1.56,22.45,1,27.64,3.07,2.82,1.11,4.26,1.69,5.81,3.06,7.46,6.62,5.75,29.36,5.75,29.36-.05-1.11-.05-4.37,2.16-6,.42-.31.75-.57,1.15-.52,2.68.38,5.65,14.68-.64,20.3A9.08,9.08,0,0,1,440.54,409.57Z"/><path class="cls-1" d="M481.47,580A158.6,158.6,0,0,1,415,594.58a160,160,0,0,1-29.48-2.73,157.28,157.28,0,0,1-33.24-10.14c-18.06-19.87-30.86-53.87-32.78-95.4a194.6,194.6,0,0,0,36-12.53c8.38-4,16.22-8.63,17.67-9.49,4.28-2.56,7.84-4.89,10.54-6.72l17.37-.26v8.43a8.33,8.33,0,0,0-4.34,7c-.39,5.23,5.61,16.08,20.19,16.85s20.4-9.45,21.36-15.57a6.37,6.37,0,0,0-4.41-7.54l0-8.76c2.06.3,4.93.77,8.31,1.53,6.83,1.54,10.24,2.31,11.25,3.37,2.83,3-3.16,16.27-37.65,58.26,39.94-15.78,74.62-1.85,81,17.42C502.93,556.45,483.48,577.87,481.47,580Z"/><path class="cls-17" d="M385.5,591.85a158.58,158.58,0,0,1-86.06-47.11c2.9-10.89,6.51-24.12,9.77-35.08,5.49-18.49,6.46-20,7.63-21.45,9.93-12.27,24.36-7.95,48.76-19.66a110.25,110.25,0,0,0,18.13-11q.19,29,.56,58.08Q384.76,553.75,385.5,591.85Z"/><path class="cls-1" d="M402.37,358.38c12.79-2.19,24.64,2.13,29.87,10.85a22.22,22.22,0,0,1,2.94,12.09,19.48,19.48,0,0,0,1.32-11.41c-2.21-10.67-14.62-18.64-25.09-16.45A18.82,18.82,0,0,0,402.37,358.38Z"/><path class="cls-1" d="M392.75,343.36a72.77,72.77,0,0,1,19.41-2,68.14,68.14,0,0,1,18,2.89c8.45,2.65,12.68,4,15.49,7.83,3.51,4.8,1.95,9.43,1.49,25.74-.21,7.48-.08,13.51,0,17.17-.31-4.43-1.61-7.39-3-7.47-1.55-.09-3,3.55-3.15,4a38.59,38.59,0,0,0-.26-10c-.28-1.74-1.77-11.12-7.4-17.23-6.78-7.36-19-9.36-31.06-5.91Z"/><path class="cls-1" d="M402.93,430.9l10.78,7.76-.36-.11,9.83.27-.22.07L434,431.4l-10.64,8.09-.08.06h-.13l-9.83.27h-.18l-.18-.12-11.18-7.15a1,1,0,1,1,1.08-1.69Z"/><path class="cls-19" d="M383.73,457.57c-2.7,1.88-5.63,3.8-8.77,5.7s-6.36,3.72-9.36,5.28q9.94,61.65,19.9,123.3Z"/><path class="cls-1" d="M515.81,486.88c-1.77,38.2-12.74,70-28.54,90.34q-2.86,1.47-5.8,2.82a158,158,0,0,1-30.08,10.34l-1.57.36A158.7,158.7,0,0,1,415,594.58h-1.49l.92-104.46a26.75,26.75,0,0,0,3.93.07c14.58-.77,20.58-11.62,20.19-16.86a8.3,8.3,0,0,0-4.34-7v-8.43c5.79.09,11.58.16,17.36.26,2.7,1.83,6.27,4.15,10.55,6.7,1.44.88,9.29,5.54,17.67,9.5A194.26,194.26,0,0,0,515.81,486.88Z"/><path class="cls-17" d="M534.52,540.34a158.37,158.37,0,0,1-83.13,50l-1.57.36q.72-37.26,1.18-74.53.36-29.06.56-58.08a109.56,109.56,0,0,0,18.13,11c24.39,11.71,38.83,7.4,48.76,19.66,1.17,1.45,2.14,3,7.63,21.45C528.86,519.56,531.89,530.55,534.52,540.34Z"/><path class="cls-19" d="M451.44,458.14l18.14,11-19.9,123.31Q450.56,525.28,451.44,458.14Z"/><rect class="cls-1" x="340.5" y="529.44" width="25.1" height="3.36" rx="0.96"/><rect class="cls-20" x="354.05" y="522.7" width="13.91" height="3.57" rx="0.96" transform="translate(-163.48 885.49) rotate(-90)"/><polyline class="cls-21" points="414.98 619.61 415.2 594.44 416.12 489.54 416.46 451.44"/></g><g id="medico-2" data-name="medico"><path class="cls-1" d="M303.55,632.86a25.11,25.11,0,0,1,19.06,41.39l-.21.24a25.07,25.07,0,0,1-7.45,5.83c-.3.16-.61.3-.92.45a25.25,25.25,0,0,1-4.74,1.63l-.25.06a24.76,24.76,0,0,1-5.49.6h-.23a24.92,24.92,0,0,1-9.66-2,25.12,25.12,0,0,1,9.89-48.17m0-4a29.12,29.12,0,0,0-21.13,49.07,29,29,0,0,0,15.74,8.63,28.47,28.47,0,0,0,5.12.5h.27a28.79,28.79,0,0,0,6.37-.7l.25-.06a29.21,29.21,0,0,0,5.54-1.9l1.07-.52a29,29,0,0,0,8.63-6.76l.26-.29a29.12,29.12,0,0,0-22.12-48Z"/><path class="cls-3" d="M328.6,658a25.09,25.09,0,0,1-6,16.29l-.21.24a25.07,25.07,0,0,1-7.45,5.83c-.3.16-.61.3-.92.45a25.25,25.25,0,0,1-4.74,1.63l-.25.06a24.76,24.76,0,0,1-5.49.6h-.23a24.92,24.92,0,0,1-9.66-2A25.09,25.09,0,1,1,328.6,658Z"/><path class="cls-1" d="M299.44,650.43l.37-7.1.69.92.69,1.07.37.41a6.37,6.37,0,0,0-.83,1.12,6.28,6.28,0,0,0-.59,1.39v2.62Z"/><path class="cls-19" d="M307.58,653.82c.08.66.15,1.32.22,2l-1.24,1.47,0,4.44c.36.33,2.21,2.08,1.87,3.9-.55,2.91-6.4,4.47-8.17,2.46-1.13-1.28-.72-4.12,1.12-6.7v-4.16c-.39-.4-.78-.8-1.16-1.21l-.12-2.18a1.62,1.62,0,0,1-1.09-1.41c-.16-1.17,0-2.14.22-2.08a4.84,4.84,0,0,1,.93.53,7.73,7.73,0,0,1,0-2.62,3.62,3.62,0,0,1,.41-1.33,6.48,6.48,0,0,1,.91-1.16,8.94,8.94,0,0,1,4.36.49,2.62,2.62,0,0,1,.92.48c1.17,1,.9,4.64.9,4.64a1.2,1.2,0,0,1,.34-1c.07,0,.12-.09.19-.08.42.06.89,2.32-.11,3.21A1.3,1.3,0,0,1,307.58,653.82Z"/><path class="cls-1" d="M314,680.77a24.94,24.94,0,0,1-10.48,2.29,24.9,24.9,0,0,1-9.89-2c-2.84-3.14-4.86-8.51-5.16-15.08a28.82,28.82,0,0,0,8.46-3.48c.68-.4,1.24-.77,1.67-1.06l2.73,0v1.33a1.31,1.31,0,0,0-.68,1.11c-.06.83.88,2.54,3.18,2.66a3,3,0,0,0,3.37-2.46,1,1,0,0,0-.7-1.19c0-.46,0-.92,0-1.38.32,0,.78.12,1.31.24a5.06,5.06,0,0,1,1.77.53c.45.47-.49,2.57-5.93,9.21,6.29-2.5,11.76-.29,12.78,2.75C317.42,677,314.35,680.42,314,680.77Z"/><path class="cls-17" d="M298.9,682.63a24.93,24.93,0,0,1-13.56-7.44c.45-1.72,1-3.82,1.54-5.55.86-2.92,1-3.16,1.2-3.39,1.56-1.94,3.84-1.25,7.69-3.1a18.5,18.5,0,0,0,2.86-1.74q0,4.59.08,9.18Q298.78,676.61,298.9,682.63Z"/><path class="cls-1" d="M301.56,645.73a4.49,4.49,0,0,1,4.71,1.72,3.53,3.53,0,0,1,.47,1.91,3.16,3.16,0,0,0,.2-1.8A3.53,3.53,0,0,0,303,645,3,3,0,0,0,301.56,645.73Z"/><path class="cls-1" d="M300.05,643.36a11.22,11.22,0,0,1,3.06-.32,10.75,10.75,0,0,1,2.84.45c1.33.42,2,.63,2.44,1.24s.31,1.49.24,4.07c0,1.18,0,2.13,0,2.71-.05-.7-.26-1.16-.47-1.18s-.47.56-.5.64a6.18,6.18,0,0,0,0-1.58,5.61,5.61,0,0,0-1.17-2.72,4.84,4.84,0,0,0-4.9-.94Z"/><path class="cls-1" d="M301.65,657.2l1.7,1.22-.06,0,1.55.05h0l1.75-1.19-1.68,1.28h0l-1.55.05h0l0,0-1.76-1.13a.15.15,0,0,1-.05-.22.15.15,0,0,1,.22,0Z"/><path class="cls-19" d="M298.63,661.41c-.43.3-.89.6-1.39.9s-1,.59-1.47.84q1.56,9.74,3.13,19.48Z"/><path class="cls-1" d="M319.45,666c-.28,6-2,11.07-4.5,14.28-.3.16-.61.3-.92.45a25.25,25.25,0,0,1-4.74,1.63l-.25.06a24.76,24.76,0,0,1-5.49.6h-.23l.14-16.51a3.18,3.18,0,0,0,.62,0c2.3-.12,3.25-1.83,3.18-2.66a1.31,1.31,0,0,0-.68-1.11v-1.33l2.74,0c.42.29,1,.66,1.66,1.06.23.14,1.47.87,2.79,1.5A30.19,30.19,0,0,0,319.45,666Z"/><path class="cls-17" d="M322.4,674.49a24.9,24.9,0,0,1-13.11,7.91l-.25.06c.08-3.93.14-7.85.19-11.78q.06-4.59.09-9.18a17,17,0,0,0,2.86,1.73c3.84,1.85,6.12,1.17,7.68,3.11.19.23.34.47,1.21,3.39C321.51,671.21,322,672.94,322.4,674.49Z"/><path class="cls-19" d="M309.3,661.5l2.86,1.73L309,682.72Z"/><rect class="cls-1" x="291.81" y="672.77" width="3.96" height="0.53" rx="0.27"/><rect class="cls-20" x="293.94" y="671.7" width="2.2" height="0.56" rx="0.28" transform="translate(-376.94 967.03) rotate(-90)"/><polyline class="cls-21" points="303.55 687.02 303.59 683.04 303.73 666.46 303.79 660.44"/></g><g id="medico-3" data-name="medico"><path class="cls-1" d="M304,852.68a25.11,25.11,0,0,1,19,41.39l-.21.25a25,25,0,0,1-7.45,5.82c-.3.16-.6.31-.91.45a24.79,24.79,0,0,1-4.74,1.63l-.25.06a24.9,24.9,0,0,1-5.49.61h-.24a26.68,26.68,0,0,1-4.41-.43A25.11,25.11,0,0,1,304,852.68m0-4a29.11,29.11,0,0,0-5.39,57.71,30.41,30.41,0,0,0,5.12.5H304a28.93,28.93,0,0,0,6.37-.71h.06l.21,0a28.36,28.36,0,0,0,5.52-1.9c.35-.16.71-.34,1.06-.52A29.05,29.05,0,0,0,325.9,897l.25-.3a29.12,29.12,0,0,0-22.11-48Z"/><path class="cls-3" d="M329.08,877.78a25,25,0,0,1-6,16.29l-.21.25a25,25,0,0,1-7.45,5.82c-.3.16-.6.31-.91.45a24.79,24.79,0,0,1-4.74,1.63l-.25.06a24.9,24.9,0,0,1-5.49.61h-.24a26.68,26.68,0,0,1-4.41-.43,25.1,25.1,0,1,1,29.69-24.68Z"/><path class="cls-1" d="M299.92,870.25l.37-7.09.7.91.68,1.07.38.42a5.41,5.41,0,0,0-.83,1.11,5.92,5.92,0,0,0-.6,1.39v2.62Z"/><path class="cls-19" d="M308.07,873.65c.07.66.14,1.32.22,2L307,877.1l0,4.44c.37.33,2.21,2.07,1.87,3.89-.55,2.91-6.4,4.47-8.17,2.46-1.12-1.28-.71-4.12,1.13-6.7V877l-1.17-1.21-.12-2.18a1.62,1.62,0,0,1-1.09-1.42c-.16-1.16,0-2.13.22-2.07a4.62,4.62,0,0,1,.93.52,8,8,0,0,1,0-2.62,3.76,3.76,0,0,1,.41-1.32,6.83,6.83,0,0,1,.92-1.16,8.87,8.87,0,0,1,4.36.48,2.73,2.73,0,0,1,.91.49c1.18,1,.91,4.64.91,4.64a1.12,1.12,0,0,1,.34-1,.24.24,0,0,1,.18-.08c.42.06.89,2.32-.1,3.2A1.55,1.55,0,0,1,308.07,873.65Z"/><path class="cls-1" d="M314.52,900.59a25.14,25.14,0,0,1-10.48,2.3,25.37,25.37,0,0,1-4.65-.43,24.89,24.89,0,0,1-5.24-1.61c-2.85-3.14-4.87-8.51-5.17-15.07a30.93,30.93,0,0,0,5.68-2c1.32-.63,2.56-1.37,2.79-1.51.67-.4,1.23-.77,1.66-1.06l2.74,0v1.34a1.3,1.3,0,0,0-.69,1.1c-.06.83.89,2.55,3.19,2.67a3,3,0,0,0,3.36-2.46,1,1,0,0,0-.69-1.19v-1.39c.33,0,.78.12,1.31.24a5.3,5.3,0,0,1,1.78.54c.44.47-.5,2.57-5.94,9.2,6.3-2.49,11.77-.29,12.78,2.76C317.9,896.86,314.84,900.25,314.52,900.59Z"/><path class="cls-17" d="M299.39,902.46A25,25,0,0,1,285.82,895c.46-1.72,1-3.81,1.54-5.54.87-2.93,1-3.17,1.2-3.39,1.57-1.94,3.84-1.26,7.69-3.11a16.63,16.63,0,0,0,2.86-1.74q0,4.59.09,9.18Q299.27,896.44,299.39,902.46Z"/><path class="cls-1" d="M302.05,865.56a4.48,4.48,0,0,1,4.71,1.71,3.51,3.51,0,0,1,.46,1.91,3.05,3.05,0,0,0,.21-1.8,3.54,3.54,0,0,0-4-2.6A3,3,0,0,0,302.05,865.56Z"/><path class="cls-1" d="M300.53,863.18a11.67,11.67,0,0,1,3.06-.32,10.27,10.27,0,0,1,2.85.46c1.33.42,2,.63,2.44,1.23.55.76.31,1.5.23,4.07,0,1.19,0,2.14,0,2.72-.05-.7-.25-1.17-.47-1.18s-.47.56-.5.64a5.82,5.82,0,0,0,0-1.59,5.6,5.6,0,0,0-1.16-2.72,4.85,4.85,0,0,0-4.9-.93Z"/><path class="cls-1" d="M302.14,877l1.7,1.23-.06,0,1.55,0h0L307,877.1l-1.68,1.28h0l-1.55,0h0l0,0L302,877.28a.17.17,0,0,1,0-.22.17.17,0,0,1,.22,0Z"/><path class="cls-19" d="M299.11,881.23q-.64.45-1.38.9c-.51.31-1,.59-1.48.84q1.58,9.74,3.14,19.49Z"/><path class="cls-1" d="M319.93,885.87c-.28,6-2,11.06-4.5,14.27-.3.16-.6.31-.91.45a24.79,24.79,0,0,1-4.74,1.63l-.25.06a24.9,24.9,0,0,1-5.49.61h-.24l.15-16.51a4.21,4.21,0,0,0,.62,0c2.29-.12,3.24-1.84,3.18-2.67a1.3,1.3,0,0,0-.69-1.1v-1.34l2.74,0c.43.29,1,.66,1.67,1.06a29.12,29.12,0,0,0,8.46,3.49Z"/><path class="cls-17" d="M322.88,894.32a25.24,25.24,0,0,1-8.36,6.27,24.79,24.79,0,0,1-4.74,1.63l-.25.06c.07-3.93.14-7.85.19-11.78q0-4.59.08-9.18a17,17,0,0,0,2.86,1.74c3.85,1.85,6.12,1.17,7.69,3.1.18.23.34.47,1.2,3.39C322,891,322.47,892.77,322.88,894.32Z"/><path class="cls-19" d="M309.79,881.32l2.85,1.74-3.13,19.49Z"/><rect class="cls-1" x="292.29" y="892.59" width="3.96" height="0.53" rx="0.27"/><rect class="cls-20" x="294.43" y="891.53" width="2.2" height="0.56" rx="0.28" transform="translate(-596.28 1187.34) rotate(-90)"/><polyline class="cls-21" points="304.04 906.84 304.07 902.87 304.22 886.29 304.27 880.26"/></g><g id="medico-4" data-name="medico"><path class="cls-1" d="M504,741a25.11,25.11,0,0,1,19,41.39l-.21.24a25.07,25.07,0,0,1-7.45,5.83c-.3.16-.6.3-.91.45a25.75,25.75,0,0,1-4.74,1.63l-.25.06a24.9,24.9,0,0,1-5.49.6h-.24a24.6,24.6,0,0,1-4.41-.43,24.3,24.3,0,0,1-5.24-1.6A25.11,25.11,0,0,1,504,741m0-4a29.11,29.11,0,0,0-11.48,55.84,29,29,0,0,0,11.21,2.36H504a28.92,28.92,0,0,0,6.37-.7l.12,0,.13,0a29.11,29.11,0,0,0,5.53-1.9l1.07-.52a28.92,28.92,0,0,0,8.63-6.76,2.55,2.55,0,0,0,.26-.3A29.11,29.11,0,0,0,504,737Z"/><path class="cls-3" d="M529,766.06a25,25,0,0,1-6,16.29l-.21.24a25.07,25.07,0,0,1-7.45,5.83c-.3.16-.6.3-.91.45a25.75,25.75,0,0,1-4.74,1.63l-.25.06a24.9,24.9,0,0,1-5.49.6h-.24a24.6,24.6,0,0,1-4.41-.43,24.3,24.3,0,0,1-5.24-1.6A25.09,25.09,0,1,1,529,766.06Z"/><path class="cls-1" d="M499.87,758.53l.37-7.1.7.92.68,1.07.38.41a5.91,5.91,0,0,0-.84,1.12,6.28,6.28,0,0,0-.59,1.39V759Z"/><path class="cls-19" d="M508,761.93l.69,1.42-1.1,1.29c-.21.24-.41.49-.62.74l0,4.43c.36.33,2.21,2.08,1.87,3.9-.55,2.91-6.4,4.47-8.17,2.46-1.13-1.28-.71-4.12,1.13-6.7v-4.16c-.19-.2-.38-.4-.59-.6-.41-.41-.82-.79-1.21-1.14.13-.71.27-1.42.41-2.14a1,1,0,0,1-.72,0,1.27,1.27,0,0,1-.59-.95c-.17-.77,0-1.88.54-2,.35-.07.72.28.93.53a8,8,0,0,1,0-2.62A3.82,3.82,0,0,1,501,755a7.32,7.32,0,0,1,.92-1.16,8.9,8.9,0,0,1,4.35.49,2.69,2.69,0,0,1,.92.48c1.18,1,.91,4.64.91,4.64a1.21,1.21,0,0,1,.34-1c.08-.07.27-.24.45-.21.53.1,1.14,2,.32,3A2,2,0,0,1,508,761.93Z"/><path class="cls-1" d="M503.18,791.15a25.26,25.26,0,0,1-11.28-3.1,24.79,24.79,0,0,1-6.13-4.76c.46-1.72,1-3.82,1.54-5.55.87-2.92,1-3.16,1.2-3.39,1.46-1.8,6-2.7,7.69-3.1a26.1,26.1,0,0,0,5.6-2.06,8.19,8.19,0,0,0,0,4.76,8,8,0,0,0,1.49,2.77Q503.23,783.94,503.18,791.15Z"/><path class="cls-1" d="M500.48,751.46a11.25,11.25,0,0,1,3.06-.32,10.86,10.86,0,0,1,2.85.45,4.63,4.63,0,0,1,2.44,1.24c.79,1,.69,2.38.55,4.26a13.46,13.46,0,0,1-.19,1.48.5.5,0,0,0-.32-.27.71.71,0,0,0-.69.6,10.92,10.92,0,0,0-.12-1.41l0-.16a5,5,0,0,0-1.15-2.56c-.56-.55-1.32-.65-2.84-.84a15,15,0,0,0-2.05-.1Z"/><path class="cls-1" d="M506.74,765.3l-1.7,1.22h.06l-1.55,0h0l-1.74-1.18,1.67,1.27h0l1.55.05h0l0,0,1.77-1.13a.16.16,0,0,0,0-.22.15.15,0,0,0-.21-.05Z"/><path class="cls-1" d="M522.83,782.59a24.85,24.85,0,0,1-13.1,7.91,24.63,24.63,0,0,1-6.55.65q0-7.21.08-14.43a6.75,6.75,0,0,0,3.32-3.45,6.61,6.61,0,0,0,.39-3.78,32.78,32.78,0,0,0,5.64,1.85c1.72.38,6.23,1.29,7.69,3.1.18.23.34.47,1.2,3.39C521.94,779.31,522.42,781.05,522.83,782.59Z"/><polyline class="cls-21" points="503.99 795.12 504.02 791.14 504.17 774.56 504.22 768.54"/></g><rect class="cls-1" x="338.79" y="636.98" width="33.36" height="6.06"/><rect class="cls-22" x="338.79" y="656.54" width="33.36" height="4.5"/><rect class="cls-22" x="375.55" y="656.54" width="33.36" height="4.5"/><rect class="cls-22" x="411.97" y="656.54" width="47.66" height="4.5"/><polygon class="cls-22" points="372.16 664.93 365.6 664.93 338.79 664.93 338.79 669.43 365.6 669.43 372.16 669.43 408.91 669.43 408.91 664.93 372.16 664.93"/><rect class="cls-22" x="411.97" y="664.93" width="47.66" height="4.5"/><g class="cls-23"><rect class="cls-1" x="338.79" y="672.41" width="33.36" height="4.5"/><rect class="cls-1" x="365.6" y="672.41" width="37.54" height="4.5"/><rect class="cls-1" x="411.97" y="672.41" width="47.66" height="4.5"/></g><rect class="cls-1" x="338.97" y="857.02" width="33.36" height="6.06"/><rect class="cls-22" x="338.97" y="876.59" width="33.36" height="4.5"/><rect class="cls-22" x="375.72" y="876.59" width="33.36" height="4.5"/><rect class="cls-22" x="412.15" y="876.59" width="14.98" height="4.5"/><polygon class="cls-22" points="372.33 884.98 365.77 884.98 338.97 884.98 338.97 889.48 365.77 889.48 372.33 889.48 409.09 889.48 409.09 884.98 372.33 884.98"/><g class="cls-23"><rect class="cls-1" x="338.97" y="892.46" width="33.36" height="4.5"/></g><rect class="cls-1" x="420.82" y="740.96" width="33.36" height="6.06"/><rect class="cls-22" x="333.35" y="760.52" width="33.36" height="4.5"/><rect class="cls-22" x="370.1" y="760.52" width="33.36" height="4.5"/><rect class="cls-22" x="406.52" y="760.52" width="47.66" height="4.5"/><polygon class="cls-22" points="345.74 768.91 343.3 768.91 333.35 768.91 333.35 773.41 343.3 773.41 345.74 773.41 359.39 773.41 359.39 768.91 345.74 768.91"/><polygon class="cls-22" points="382.08 768.91 378.32 768.91 362.96 768.91 362.96 773.41 378.32 773.41 382.08 773.41 403.13 773.41 403.13 768.91 382.08 768.91"/><rect class="cls-22" x="406.52" y="768.91" width="47.66" height="4.5"/><polygon class="cls-22" points="345.74 783.87 343.3 783.87 333.35 783.87 333.35 788.37 343.3 788.37 345.74 788.37 359.39 788.37 359.39 783.87 345.74 783.87"/><polygon class="cls-22" points="382.08 783.87 378.32 783.87 362.96 783.87 362.96 788.37 378.32 788.37 382.08 788.37 403.13 788.37 403.13 783.87 382.08 783.87"/><rect class="cls-22" x="406.52" y="783.87" width="47.66" height="4.5"/><polygon class="cls-22" points="382.08 791.16 378.32 791.16 362.96 791.16 362.96 795.66 378.32 795.66 382.08 795.66 403.13 795.66 403.13 791.16 382.08 791.16"/><rect class="cls-22" x="406.52" y="791.16" width="47.66" height="4.5"/><g class="cls-23"><rect class="cls-1" x="391.52" y="776.39" width="62.66" height="4.5"/></g><rect class="cls-17" x="538.65" y="242.91" width="8" height="8" rx="4"/><rect class="cls-17" x="548.35" y="236.87" width="8" height="14.04" rx="4"/><rect class="cls-17" x="557.46" y="232.11" width="8" height="18.81" rx="4"/><rect class="cls-17" x="566.82" y="227.25" width="8" height="23.66" rx="4"/><g id="psicologia"><path class="cls-3" d="M65.93,278.73a.17.17,0,0,1,0,.07v.11c0,.06,0,.12,0,.19a1.74,1.74,0,0,1-.05.34l-.06.29-.09.27a5.72,5.72,0,0,1-.36.85A10.91,10.91,0,0,1,63.73,283c-.54.6-1.09,1.15-1.65,1.66s-1.13,1-1.7,1.49-1.15.92-1.78,1.4l-.09.07a2,2,0,0,1-1.12.39q-7.1.19-14.18.46l-7.08.26a9.73,9.73,0,0,0-2.91.53l-.35.11c-.11,0-.22.1-.33.15l-.68.32-.63.39a4.3,4.3,0,0,0-.62.43,15.56,15.56,0,0,0-4.06,4.84,32.39,32.39,0,0,0-2.64,6.18,53.38,53.38,0,0,0-1.64,6.68c-.21,1.13-.39,2.27-.53,3.42s-.26,2.31-.33,3.42v.09a1.24,1.24,0,0,1-1.31,1.17l-.11,0a18.61,18.61,0,0,1-3.81-.87,17.14,17.14,0,0,1-1.83-.75l-.88-.48a9.07,9.07,0,0,1-.83-.54,14.3,14.3,0,0,1-1.56-1.23l-.7-.7c-.24-.24-.43-.5-.65-.75a16,16,0,0,1-2.06-3.31,23,23,0,0,1-1.9-7.34,32.52,32.52,0,0,1,.07-7A10.58,10.58,0,0,1,.2,285.67a17.1,17.1,0,0,1,0-5.1,21.07,21.07,0,0,1,.49-2.49c.1-.41.21-.81.34-1.22.06-.2.12-.4.19-.6l.11-.3.06-.15,0-.07,0,0a.32.32,0,0,1,.17-.19.82.82,0,0,1,.21,0l.11,0,0,0,.14.07.29.14.59.27,1.19.52,1.2.49,1.21.45a51.31,51.31,0,0,0,4.91,1.5,45.08,45.08,0,0,0,5,1c.83.09,1.66.2,2.5.22.41,0,.83.07,1.24.06h1.24a17.54,17.54,0,0,0,9-2.57,23.18,23.18,0,0,0,3.78-2.86c.58-.54,1.13-1.11,1.65-1.7.27-.3.52-.61.75-.91.12-.15.24-.3.35-.46l.17-.22.12-.18a2.18,2.18,0,0,1,2.2-1.05l.25,0,2.73.43.68.11.68.08,1.36.17c.9.13,1.8.19,2.7.27s1.79.1,2.69.14a27.92,27.92,0,0,0,5.14-.24c.4-.06.78-.15,1.17-.22l.53-.15.27-.07.24-.09a6,6,0,0,1,.91-.26l4.7.14c.54,1.38,1,2.73,1.5,4.15.23.71.46,1.42.66,2.2,0,.2.1.39.14.61l.07.33,0,.09A3.69,3.69,0,0,1,65.93,278.73Z"/><path class="cls-1" d="M65.18,289.9s10.51,8.16,11.16,14a55.17,55.17,0,0,1,0,11.16s6.22-.21,7.08,6-2.58,12.23,0,15.45,9.87,7.94,10.94,6.87,0-14.17,0-14.17,20.39-1.5,24.25-24.67c0,0-18.88,11.37-51.29-17.6Z"/><path class="cls-1" d="M68,316.3s.21,3.22,4.29,4.29S71,323,71,323s-5.79,2.58-7.72-3.33c0,0-12.24,3.76-19.53,1.4S30,310.08,30,310.08s2.58-15.67,17.6-16.1S69.47,303,68,316.3Z"/><path class="cls-3" d="M68.61,271s16.1-7.3,17.6-17.81c0,0,15.88,5.36,21.46,17.81a21,21,0,0,1,9.46,9.9c.74,1.67,3.63,8.26.55,13.13a8.64,8.64,0,0,1-1.43,1.72A31.72,31.72,0,0,1,102,298.28C80.38,296.92,69.15,272.24,68.61,271Z"/><path class="cls-1" d="M6.79,271.18a.23.23,0,0,0,.06-.18.18.18,0,0,0,0-.1v0l0,.05.08.1.16.18c.11.13.23.25.34.37s.48.48.73.7a12.39,12.39,0,0,0,1.61,1.19,10.67,10.67,0,0,0,7.55,1.56,14.16,14.16,0,0,0,3.73-1.21,23.36,23.36,0,0,0,6.49-4.55A19.23,19.23,0,0,0,30,266.24l.26-.41.23-.42c.16-.28.3-.57.44-.86s.26-.59.36-.88.11-.29.16-.44.05-.15.06-.21l.05-.19,1.76-.49h0l0,0,0,0,.12.09.27.17a6.08,6.08,0,0,0,.62.33,6.62,6.62,0,0,0,.66.3l.68.26a23.14,23.14,0,0,0,2.88.81,45.06,45.06,0,0,0,6.06.82l1.54.1,1.54,0,.77,0,.71,0h.36l.36,0,.71-.07a23.73,23.73,0,0,0,5.66-1.65,42.66,42.66,0,0,0,5.36-2.79q2.61-1.59,5.07-3.44c1.65-1.24,3.08-2.45,4.79-3.88l1.78-1.52-.7-.11s-2.2-.33-4.4-.51a66,66,0,0,0-8.77-.18A45.59,45.59,0,0,0,51,252.29a24.82,24.82,0,0,0-7.52,3.08l-1.72,1.11-1.43-1.33-.34-.29-.38-.32-.79-.59a14.67,14.67,0,0,0-1.63-1,8.72,8.72,0,0,0-1.53-.66,4.41,4.41,0,0,0-.59-.12,1.4,1.4,0,0,0-.32,0h-.09l-.07,0-.09.07a9,9,0,0,0-.74.56,16.34,16.34,0,0,0-1.44,1.34,20,20,0,0,0-1.36,1.54l-.65.81L30,257l-.28.39-1.89,1h-.32l-.4,0c-.28,0-.56.06-.83.1a9.83,9.83,0,0,0-1.62.4,7.12,7.12,0,0,0-2.71,1.66,6.51,6.51,0,0,0-1,1.27,3.35,3.35,0,0,0-.21.36c-.06.13-.13.25-.19.37a7.85,7.85,0,0,0-.32.8,12.49,12.49,0,0,0-.67,3.58l0,.45-.16.25A4.18,4.18,0,0,1,19,268c-.09.13-.19.25-.29.37s-.42.47-.63.69a11.54,11.54,0,0,1-1.38,1.23,10.81,10.81,0,0,1-3.26,1.75,8.26,8.26,0,0,1-5.39-.1c-.28-.09-.55-.22-.81-.33l-.1,0h0l0,0Zm-.39-.32c.15,0,.33,0,.54,0l.31.06.14,0,.1,0c.27.05.53.12.8.15a8.53,8.53,0,0,0,1.59.09,7.4,7.4,0,0,0,2.95-.78,8.8,8.8,0,0,0,2.42-1.82,12.13,12.13,0,0,0,1-1.16c.15-.21.3-.41.43-.62l.2-.32.16-.29-.19.71a15,15,0,0,1,.28-4.5c.08-.38.21-.75.32-1.13.06-.19.14-.38.21-.56a5.55,5.55,0,0,1,.24-.56,9.83,9.83,0,0,1,1.31-2.08,10.53,10.53,0,0,1,3.91-2.95,12.83,12.83,0,0,1,2.28-.79c.39-.09.79-.17,1.19-.23l.61-.07.31,0h.39l-1.89,1,.33-.56.33-.51c.22-.34.44-.67.68-1a24.43,24.43,0,0,1,1.5-1.93,19.67,19.67,0,0,1,1.73-1.82c.32-.3.65-.58,1-.86l.13-.1.16-.12.45-.28a5.47,5.47,0,0,1,1-.42,5.93,5.93,0,0,1,1.9-.27,8.13,8.13,0,0,1,1.63.22,11.41,11.41,0,0,1,2.64,1,19.28,19.28,0,0,1,2.22,1.3q.52.35,1,.72l.5.39c.18.13.32.25.53.43L40.57,251a25.93,25.93,0,0,1,4.49-2.34l1.16-.44,1.18-.38c.4-.13.79-.22,1.19-.33s.79-.21,1.19-.29a35.91,35.91,0,0,1,4.78-.74,44.72,44.72,0,0,1,4.76-.22,71.13,71.13,0,0,1,9.37.65c1.54.2,3.08.45,4.61.74.76.14,1.53.29,2.29.46l1.14.25c.39.1.75.18,1.17.3l3.45.9L78.83,252c-.81.78-1.59,1.48-2.4,2.2s-1.63,1.4-2.46,2.08c-1.65,1.36-3.37,2.65-5.12,3.89s-3.58,2.39-5.47,3.45a43.81,43.81,0,0,1-5.91,2.8,27,27,0,0,1-6.48,1.6l-.85.06-.43,0H48.42l-.8-.05L46,268l-1.61-.16A43.88,43.88,0,0,1,38,266.66a26.08,26.08,0,0,1-3.13-1c-.26-.1-.52-.22-.77-.34s-.51-.25-.76-.39-.51-.29-.76-.44l-.38-.27a4.62,4.62,0,0,1-.42-.36l1.76-.49-.1.31c0,.09-.06.18-.1.27a4.71,4.71,0,0,1-.21.52c-.14.35-.3.67-.47,1s-.34.65-.54.95l-.28.47-.31.44a20.37,20.37,0,0,1-2.82,3.25,25.07,25.07,0,0,1-7.13,4.55,15.4,15.4,0,0,1-4.13,1.12,11.6,11.6,0,0,1-4.27-.29,12.09,12.09,0,0,1-3.84-1.81,12.94,12.94,0,0,1-1.61-1.35A10.44,10.44,0,0,1,7,272l-.33-.41-.16-.21-.08-.1,0-.06,0,0a.22.22,0,0,1-.06-.13A.3.3,0,0,1,6.4,270.86Z"/><path class="cls-1" d="M65.9,278.29l0-.22,0-.09-.07-.33c0-.22-.09-.41-.14-.61-.2-.78-.43-1.49-.66-2.2-.47-1.42-1-2.77-1.5-4.15l-4.7-.14a6,6,0,0,0-.91.26l-.24.09-.27.07-.53.15c-.39.07-.77.16-1.17.22a27.92,27.92,0,0,1-5.14.24c-.9,0-1.78,0-2.69-.14s-1.8-.14-2.7-.27L43.77,271l-.68-.08-.68-.11-2.73-.43-.25,0a2.18,2.18,0,0,0-2.2,1.05l-.12.18-.17.22c-.11.16-.23.31-.35.46-.23.3-.48.61-.75.91-.52.59-1.07,1.16-1.65,1.7a23.18,23.18,0,0,1-3.78,2.86,17.54,17.54,0,0,1-9,2.57H20.19c-.41,0-.83-.05-1.24-.06-.84,0-1.67-.13-2.5-.22a45.08,45.08,0,0,1-5-1,51.31,51.31,0,0,1-4.91-1.5l-1.21-.45-1.2-.49L3,276.09l-.59-.27-.29-.14-.14-.07,0,0-.11,0a.82.82,0,0,0-.21,0,.32.32,0,0,0-.17.19l0,0,0,.07-.06.15-.11.3c-.07.2-.13.4-.19.6-.13.41-.24.81-.34,1.22a21.07,21.07,0,0,0-.49,2.49,17.1,17.1,0,0,0,0,5.1,10.58,10.58,0,0,0,5.63,7.85,32.52,32.52,0,0,0-.07,7,23,23,0,0,0,1.9,7.34,16,16,0,0,0,2.06,3.31c.22.25.41.51.65.75l.7.7a14.3,14.3,0,0,0,1.56,1.23,9.07,9.07,0,0,0,.83.54l.88.48a17.14,17.14,0,0,0,1.83.75,18.61,18.61,0,0,0,3.81.87l.11,0a1.24,1.24,0,0,0,1.31-1.17v-.09c.07-1.11.19-2.28.33-3.42s.32-2.29.53-3.42a53.38,53.38,0,0,1,1.64-6.68,32.39,32.39,0,0,1,2.64-6.18,15.56,15.56,0,0,1,4.06-4.84,4.3,4.3,0,0,1,.62-.43l.63-.39.68-.32c.11-.05.22-.11.33-.15l.35-.11a9.73,9.73,0,0,1,2.91-.53l7.08-.26q7.09-.25,14.18-.46a2,2,0,0,0,1.12-.39l.09-.07c.63-.48,1.19-.92,1.78-1.4s1.14-1,1.7-1.49,1.11-1.06,1.65-1.66a10.91,10.91,0,0,0,1.61-2.19,5.72,5.72,0,0,0,.36-.85l.09-.27.06-.29a1.74,1.74,0,0,0,.05-.34c0-.07,0-.13,0-.19v-.11a.17.17,0,0,0,0-.07Zm-4.84.27v0s0,.05,0,.06a.38.38,0,0,0,0,.1.91.91,0,0,0,0,.17s0,0,0,.06l0-.2v0a7.66,7.66,0,0,1-.84,1.2c-.39.47-.83.95-1.3,1.42s-1,.94-1.46,1.39c-.33.31-.69.62-1,.91-4.45.33-8.9.62-13.35.92L36,285a13.18,13.18,0,0,0-7.53,2.87,19.13,19.13,0,0,0-4.82,6,36.87,36.87,0,0,0-2.68,6.9,58.3,58.3,0,0,0-1.48,7.11c-.17,1.19-.31,2.39-.42,3.59-.06.73-.12,1.46-.16,2.2a13.82,13.82,0,0,1-1.95-.45,14,14,0,0,1-1.57-.57l-.74-.38a4.62,4.62,0,0,1-.72-.41,12.89,12.89,0,0,1-1.35-1l-.61-.56c-.21-.19-.38-.41-.58-.61a14.23,14.23,0,0,1-1.9-2.8,21,21,0,0,1-2-6.66,30,30,0,0,1-.16-7.09v0a.7.7,0,0,0-.4-.71,9.57,9.57,0,0,1-3.74-2.75,10.12,10.12,0,0,1-2-4.24,16.66,16.66,0,0,1-.24-4.84,22.22,22.22,0,0,1,.35-2.43c.08-.41.17-.81.28-1.2.05-.2.1-.4.16-.6l.08-.26-.14-.09,0,0h0a.1.1,0,0,0,.08-.05.19.19,0,0,0,.14-.11v0l0,.07-.05.15v0l.27.2c.17.13.36.26.54.38.36.25.73.49,1.1.73.75.48,1.51.91,2.29,1.34a41.66,41.66,0,0,0,4.83,2.26,36.39,36.39,0,0,0,10.5,2.51,12.89,12.89,0,0,0,1.41.08c.47,0,.95,0,1.43,0a22.73,22.73,0,0,0,2.84-.36,22,22,0,0,0,5.41-1.89,26,26,0,0,0,4.75-3.13,25.41,25.41,0,0,0,2.09-1.93q.47-.46.9-1l1.44.29.71.15.72.11,1.44.24c.95.16,1.94.25,2.91.37s2,.16,3,.23a31.19,31.19,0,0,0,6.14-.26c.53-.07,1.07-.2,1.6-.32.28-.07.56-.16.83-.24l.41-.13.6-.22.33.89c.23.64.45,1.28.64,1.87,0,.13.08.26.11.38l0-.08a.36.36,0,0,0,0-.07h0a0,0,0,0,1,0,0h0S61.07,278.54,61.06,278.56Z"/></g><path class="cls-17" d="M278,251.38h-1.46v-7.24c.35-.91.89-2.25,1.62-3.85a40.83,40.83,0,0,0,1.77-3.73,10.7,10.7,0,0,0-.43-6.91,11.85,11.85,0,0,0-4.06-5.33.64.64,0,0,0-.36-.12.66.66,0,0,0-.38.12c-.67.46-4.5,3.18-5.17,7.75a10,10,0,0,0,.36,4.75,27.1,27.1,0,0,0,1.47,2.9l2.24,4.42h0v7.24h-1.47c-.58,1.25-3.29,2.78-3,2.78,3.15,0,3.21-.89,3.21-.89h.88V255h3.67v-1.77h.89s0,.89,3.21.89C281.3,254.16,278.58,252.63,278,251.38Z"/><path class="cls-17" d="M272.62,247.87h-2.44s-1.9-4.47-4.29-4.31a1.9,1.9,0,0,0-1.24.52,1.69,1.69,0,0,0-.36,1.22,2.93,2.93,0,0,0,1.34,2.17h-2.78c-4-.26-6.58-3.93-5.89-7.11a6.17,6.17,0,0,1,7-4.43,13,13,0,0,1,8.67,11.94Z"/><path class="cls-17" d="M277.31,247.87h2.44s1.9-4.47,4.28-4.31a1.91,1.91,0,0,1,1.25.52,1.69,1.69,0,0,1,.36,1.22,2.93,2.93,0,0,1-1.34,2.17h2.78c4-.26,6.58-3.93,5.89-7.11a6.17,6.17,0,0,0-7-4.43,13,13,0,0,0-8.67,11.94Z"/><path class="cls-17" d="M265.87,250.74c.16,0,1.38,1.53,2.78,1.53s2.93-.71,3-1.41a2.65,2.65,0,0,0-2-2.35c-1-.24-1.39.29-3.49.39-.54,0-.4,0-1.45,0-2.24,0-3.38,0-4.29.48a3.11,3.11,0,0,0-1.58,1.49,3.63,3.63,0,0,0,.56,3c1.7,2.93,6,3.78,8,4.14,6,1.09,9-.53,12.28,1.91,1.2.91,1.46,1.63,1.51,2.11.19,1.62-1.57,3.47-4.49,4.73l0,.77,1.87,1.13c4-1.36,6.61-4.29,6.35-6.78-.38-3.56-6.39-5.16-7-5.32-2.21-.59-2.65-.07-9.65-.73a17,17,0,0,1-4.9-1.55,3.61,3.61,0,0,1-1.9-1.67,1.57,1.57,0,0,1-.1-1.38c.23-.36.68-.44,1.31-.51A16.92,16.92,0,0,1,265.87,250.74Z"/><path class="cls-17" d="M268.23,255.87c3.71.35,5.58.37,6.84.4a10.3,10.3,0,0,0-2.79.33,17.3,17.3,0,0,0-3.95,1.61l-1-.16c-2-.36-6.3-1.21-8-4.13a3.66,3.66,0,0,1-.56-3.06,3.11,3.11,0,0,1,1.58-1.49c.91-.46,2.05-.48,4.29-.48,1,0,.91,0,1.45,0,2.1-.1,2.54-.63,3.49-.39a2.65,2.65,0,0,1,2,2.35c-.06.7-1.58,1.41-3,1.41s-2.62-1.53-2.78-1.53a16.92,16.92,0,0,0-3.24,0c-.63.07-1.08.15-1.31.51a1.57,1.57,0,0,0,.1,1.38,3.61,3.61,0,0,0,1.9,1.67A16.86,16.86,0,0,0,268.23,255.87Z"/><path class="cls-17" d="M278.49,268.7l-1.87-1.13,0-.77c2.92-1.26,4.68-3.11,4.49-4.73-.05-.48-.31-1.2-1.51-2.11a7.5,7.5,0,0,0-4.55-1.44,54.7,54.7,0,0,0,6.75-.31c1.48.85,2.84,2.07,3,3.71C285.1,264.41,282.52,267.34,278.49,268.7Z"/><path class="cls-17" d="M291.37,250.86a3.11,3.11,0,0,0-1.58-1.49c-.91-.46-2.05-.48-4.29-.48-1.05,0-.92,0-1.45,0-2.11-.1-2.55-.63-3.49-.39a2.68,2.68,0,0,0-2.05,2.35c.06.7,1.59,1.41,3,1.41s2.62-1.53,2.78-1.53a16.92,16.92,0,0,1,3.24,0c.62.07,1.08.15,1.31.51a1.57,1.57,0,0,1-.11,1.38,3.59,3.59,0,0,1-1.89,1.67,17,17,0,0,1-4.91,1.55c-2,.19-3.5.28-4.63.33l.21,0a7.58,7.58,0,0,1,2.38.6,7.33,7.33,0,0,1,2.48,1.29l.44-.07c2-.36,6.3-1.21,8-4.13A3.66,3.66,0,0,0,291.37,250.86Z"/><path class="cls-17" d="M277.48,281.58s-4-3.69-4.86-6.38.19-3.79.19-3.79v-1.86s.09-.55-.54-.4a3.94,3.94,0,0,0-2.55,4C269.84,275.9,273.84,281.09,277.48,281.58Z"/><path class="cls-17" d="M273.6,259.53l.12,6.72a18.58,18.58,0,0,1,2.38.95c.22.21,0-7.67,0-7.67Z"/><path class="cls-17" d="M273.7,270.13l-.1,5.38,2.58,3.22-.14-7Z"/><path class="cls-17" d="M273.76,280.56a5.53,5.53,0,0,0,0,2.49c.13.52.49,2,1.26,2.08.57,0,1.24-.68,1.58-1.75l0-1.35Z"/><path class="cls-17" d="M288.22,229.71s2.68-4.81,1.67-4.48-2.89,3.62-4.07,3.5-1.47-3.5-1.47-3.5a13.76,13.76,0,0,0-.82,2.32c0,.57,2,1.91,2,1.91s-.16.37-.33.74a6.29,6.29,0,0,0-.34,1.1s-.47.73-1.16,1.66c-.05-.53-1-1.54-1.31-2.85a1.84,1.84,0,0,1,.3-1.72,6.05,6.05,0,0,0-1.44,1.89,7.73,7.73,0,0,0,1.53,3.84l-.34.4c-1.35,1.52-4.52,7.93-4.61,8s3.06-4.45,5.61-7.9h0a15.66,15.66,0,0,0,4.86.82c.81-.12,1.34-1.6,1.34-1.6a2,2,0,0,0-1.1.46c-.69.49-1.5.12-3.34-.46l-1-.29a15.27,15.27,0,0,1,2.47-2.87c1.06-.45,4.44,2.23,4.48,1.66S288.22,229.71,288.22,229.71Z"/><path class="cls-17" d="M282.69,228.39l.07-.07Z"/><path class="cls-17" d="M261.6,229.71s-2.69-4.81-1.67-4.48,2.89,3.62,4.07,3.5,1.47-3.5,1.47-3.5a13.06,13.06,0,0,1,.81,2.32c0,.57-2,1.91-2,1.91l.34.74a7.37,7.37,0,0,1,.34,1.1s.46.73,1.16,1.66c0-.53,1-1.54,1.3-2.85a1.88,1.88,0,0,0-.29-1.72,6.18,6.18,0,0,1,1.43,1.89,7.73,7.73,0,0,1-1.53,3.84l.35.4c1.34,1.52,4.52,7.93,4.6,8s-3.05-4.45-5.6-7.9h0a15.71,15.71,0,0,1-4.86.82c-.82-.12-1.35-1.6-1.35-1.6a1.92,1.92,0,0,1,1.1.46c.69.49,1.51.12,3.35-.46l.95-.29a14.89,14.89,0,0,0-2.47-2.87c-1.06-.45-4.43,2.23-4.48,1.66S261.6,229.71,261.6,229.71Z"/><path class="cls-17" d="M267.13,228.39l-.08-.07Z"/><path class="cls-17" d="M269.3,262.12c0,.26,0,1.08,1.65,2.59,2,1.85,3.68,2.13,6.81,3.92,1,.59,1.81,1.11,2.3,1.45a3.91,3.91,0,0,1,1.49,1.81c1.12,3-2.49,6.71-3.26,6.38s1.06-3.35-.56-5.81c-.4-.61-.84-.91-2.46-1.87-5.45-3.2-7.3-3.72-8.74-5.81a8.61,8.61,0,0,1-1.2-2.66,3.72,3.72,0,0,1,3.23-4.2c5.76.18,7.39.34,7.34.34a8.09,8.09,0,0,0-4.95,1.57A3.74,3.74,0,0,0,269.3,262.12Z"/></g></g></svg>