<svg xmlns="http://www.w3.org/2000/svg" viewBox="0 0 649.65 362.45"><defs><style>.cls-1{fill:#fff;}</style></defs><g id="Layer_2" data-name="Layer 2"><g id="covid"><path class="cls-1" d="M77.43,170.41h0A13.68,13.68,0,0,1,57.78,175c-13.54-9.29-35.41-23.79-50.21-31.11a13.64,13.64,0,0,1-6-18.58L61.77,10.48A13.67,13.67,0,0,1,80.89,5.09c12.83,7.67,32.88,19.48,46.48,26.72a13.66,13.66,0,0,1,6,17.81L77.92,169.44C77.77,169.77,77.61,170.09,77.43,170.41Z"/><path class="cls-1" d="M66.39,152.48l57.33,62.18a8.81,8.81,0,0,0,13.11-.17c12.77-14.63,42-44.32,59.59-31.79,10.48,7.47,14.9,14.88,16.62,20.73a8.83,8.83,0,0,0,11.28,6c8.7-2.92,21.56-3.81,34.91,7.31,7.69,6.41,10.15,12.55,10.41,17.53a8.79,8.79,0,0,0,9.69,8.19c7.73-.75,17.31.56,24.32,9,6.57,7.9,8.44,14.47,8.61,19.19a8.83,8.83,0,0,0,7.45,8.53,38,38,0,0,1,17.64,7.08c14.82,11.36-5.29,43.14-22.34,60a8.83,8.83,0,0,0,3.25,14.62c5.17,1.81,12.87,2.48,24.25-.16,8-1.86,12.84-11.08,15.36-18a8.83,8.83,0,0,1,9.6-5.64c4.92.7,12.29.35,22-3.9,9.1-4,12.49-9.54,13.54-14.25a8.9,8.9,0,0,1,10-7c6.82,1,15.54,1.28,21.65-2.44,6.91-4.2,10.78-13,12.76-19.26a8.76,8.76,0,0,1,8.67-6.2c7.7.3,20.52-1.89,31.42-16.76,13.7-18.68,5.13-30.27,1.44-34a8.66,8.66,0,0,0-2.49-1.74c-7.34-3.43-52.5-26.65-111.71-103.85a8.81,8.81,0,0,0-13.62-.47,144.12,144.12,0,0,1-27.58,24.36c-14.93,10.11-41.65,28.18-68.17,19.83-4-1.26-21.61-7-26.1-22.74-3-10.35,2-20.05,4.33-23.8a8.68,8.68,0,0,1,2.48-2.57c12.67-8.71,26.14-18.8,40-30.46,13.16-11.09,24.89-22.11,35.28-32.68a8.79,8.79,0,0,0-2.25-14l-.1,0c-39.49-19.81-87.75,5-104.05,14.36a8.73,8.73,0,0,1-3.62,1.14C195,62.11,167.2,62,138.43,47.78a126.43,126.43,0,0,1-14.05-8.09,8.82,8.82,0,0,0-12.89,3.56l-46.6,99.51A8.82,8.82,0,0,0,66.39,152.48Z"/><path class="cls-1" d="M252.07,124.79a7.17,7.17,0,0,0-2.23,2.12c-2.47,3.68-8.45,14.06-2.87,21.21,4,5.16,7.28,9.24,10.73,11.37,10.67,6.6,26,9.18,40.59,4.56,9.32-3,11.75-6.78,36.64-28.22,16.34-14.08,24.5-21.12,26.3-21.46,23.88-4.53,41.32,42.17,102.51,90.84,26.73,21.27,37.67,23.71,46.72,23,26-2.09,43.65-31,51.68-47.39A7.07,7.07,0,0,1,573.61,179h0a7.05,7.05,0,0,0,8.08,1.55l63.85-29.41a7.07,7.07,0,0,0,3.37-9.57L580.23,3.92A7.06,7.06,0,0,0,570.8.72l-62.1,30.4A7.09,7.09,0,0,0,505,39.18q.87,3.43,1.72,6.86a7.06,7.06,0,0,1-4.33,8.32c-13.87,5.26-34,10.68-57.75,9.15C396.14,60.38,375.22,31,345.78,42.06,330.09,48,331,58.16,303.65,85A280.27,280.27,0,0,1,252.07,124.79Z"/><rect class="cls-1" x="141.31" y="180.5" width="52.58" height="95.6" rx="26.29" transform="translate(200.15 -53.04) rotate(42.88)"/><rect class="cls-1" x="194.75" y="202.95" width="49.28" height="109.02" rx="24.64" transform="translate(233.84 -80.49) rotate(42.88)"/><rect class="cls-1" x="238.49" y="240.82" width="46.49" height="101.14" rx="19.1" transform="translate(268.24 -100.23) rotate(42.88)"/><rect class="cls-1" x="282.9" y="277.83" width="38.6" height="85.58" rx="19.3" transform="matrix(0.73, 0.68, -0.68, 0.73, 298.95, -119.96)"/></g></g></svg>