<svg id="Layer_1" data-name="Layer 1" xmlns="http://www.w3.org/2000/svg" viewBox="0 0 200 123"><defs><style>.cls-1{fill:#5c6bc0;}</style></defs><path class="cls-1" d="M43.44,44.37V42.78c0-5.12,2.57-5.05,2.57-5.05H63.32V29.5H44.94a9.61,9.61,0,0,0-4.86,3.91,9.48,9.48,0,0,0-1.39,5.44v5.52h0v18a9.38,9.38,0,0,0,6.25,9.34H63.32V63.49H46s-2.57.08-2.57-5V44.37Z"/><path class="cls-1" d="M123.56,21.15V58.38a4.89,4.89,0,0,1-.91,3.55,4.62,4.62,0,0,1-1.86,1.42H109.12a3.12,3.12,0,0,1-1.58-.65,3.41,3.41,0,0,1-1.2-2.66V41.68a3.72,3.72,0,0,1,1.26-3,3.56,3.56,0,0,1,2.47-.79l12.21,0V30.19h-14s-6.42.38-6.46,10.59,0,21.37,0,21.37.39,8.9,7.27,8.81l12.8-.17a12.22,12.22,0,0,0,3.16-2.47,13.63,13.63,0,0,0,3.41-8.67V21.11Z"/><polygon class="cls-1" points="153.52 29.98 144.05 59.93 143.97 59.47 134.66 29.98 129.77 29.98 129.77 37.85 132.01 37.85 142.34 70.96 143.35 70.96 145.91 70.96 156.42 38.08 161.7 38.04 161.7 29.98 153.52 29.98"/><rect class="cls-1" x="38.69" y="74.37" width="123.01" height="1.09"/><path class="cls-1" d="M86.2,43.79H85V37.66c.3-.78.76-1.91,1.38-3.26,1-2.17,1.22-2.29,1.5-3.17a9.08,9.08,0,0,0-.36-5.85A10.12,10.12,0,0,0,84,20.86a.53.53,0,0,0-.3-.1.58.58,0,0,0-.32.1A10.38,10.38,0,0,0,79,27.43a8.62,8.62,0,0,0,.31,4,26.7,26.7,0,0,0,1.25,2.46s.07.15,1.89,3.75h0v6.13H81.22c-.49,1.06-2.79,2.35-2.53,2.35,2.67,0,2.71-.75,2.71-.75h.75v1.5h3.12v-1.5H86s0,.75,2.71.75C89,46.14,86.69,44.85,86.2,43.79Z"/><path class="cls-1" d="M81.64,40.81H79.57S78,37,75.94,37.16a1.63,1.63,0,0,0-1.06.44,1.56,1.56,0,0,0-.31,1,2.55,2.55,0,0,0,1.14,1.84H73.36a5.29,5.29,0,0,1-5-6,5.23,5.23,0,0,1,5.93-3.75,11.05,11.05,0,0,1,7.35,10.11Z"/><path class="cls-1" d="M85.61,40.81h2.07s1.61-3.79,3.63-3.65a1.58,1.58,0,0,1,1,.44,1.46,1.46,0,0,1,.31,1,2.55,2.55,0,0,1-1.14,1.84h2.36a5.28,5.28,0,0,0,5-6A5.21,5.21,0,0,0,93,30.7a11,11,0,0,0-7.35,10.11Z"/><path class="cls-1" d="M75.92,43.25c.13,0,1.16,1.29,2.35,1.29s2.49-.6,2.54-1.19a2.25,2.25,0,0,0-1.73-2c-.8-.2-1.18.24-3,.32-.45,0-.34,0-1.23,0-1.9,0-2.86,0-3.64.41a2.54,2.54,0,0,0-1.33,1.26,3.09,3.09,0,0,0,.47,2.59c1.44,2.48,5.12,3.19,6.78,3.5,5.08.93,7.64-.45,10.4,1.62a2.7,2.7,0,0,1,1.29,1.79c.16,1.37-1.34,2.93-3.81,4l0,.64,1.58,1c3.42-1.15,5.6-3.63,5.38-5.74-.32-3-5.41-4.38-5.9-4.51-1.88-.5-2.25-.06-8.18-.62a14.37,14.37,0,0,1-4.16-1.31,3.07,3.07,0,0,1-1.6-1.41,1.35,1.35,0,0,1-.09-1.18c.19-.3.58-.37,1.11-.43A13.64,13.64,0,0,1,75.92,43.25Z"/><path class="cls-1" d="M77.91,47.59c3.15.3,4.73.32,5.8.34a8.72,8.72,0,0,0-2.36.28A14.26,14.26,0,0,0,78,49.57l-.83-.13c-1.66-.3-5.34-1-6.78-3.5a3.12,3.12,0,0,1-.48-2.59,2.59,2.59,0,0,1,1.34-1.26c.78-.4,1.74-.41,3.64-.42.89,0,.78,0,1.23,0,1.78-.08,2.16-.52,2.95-.32a2.24,2.24,0,0,1,1.74,2c0,.59-1.35,1.19-2.54,1.19s-2.22-1.3-2.35-1.3a14.28,14.28,0,0,0-2.75,0c-.53.06-.92.13-1.11.43a1.35,1.35,0,0,0,.09,1.18,3.07,3.07,0,0,0,1.6,1.41A14.37,14.37,0,0,0,77.91,47.59Z"/><path class="cls-1" d="M86.6,58.46,85,57.5l0-.64c2.47-1.08,4-2.64,3.81-4a2.7,2.7,0,0,0-1.29-1.79,6.34,6.34,0,0,0-3.85-1.22,46.88,46.88,0,0,0,5.72-.27A4.54,4.54,0,0,1,92,52.72C92.21,54.83,90,57.31,86.6,58.46Z"/><path class="cls-1" d="M78.58,52.85c-.16,1.37,1.34,2.93,3.8,4l0,.64-1.58,1c-3.42-1.15-5.6-3.63-5.38-5.74A4.54,4.54,0,0,1,78,49.57a46.79,46.79,0,0,0,5.72.27,6.34,6.34,0,0,0-3.85,1.22A2.67,2.67,0,0,0,78.58,52.85Z"/><path class="cls-1" d="M97.52,43.35a2.58,2.58,0,0,0-1.33-1.26c-.78-.4-1.74-.41-3.64-.42-.89,0-.78,0-1.23,0-1.78-.08-2.16-.52-3-.32a2.25,2.25,0,0,0-1.73,2c.05.59,1.34,1.19,2.53,1.19s2.23-1.3,2.36-1.3a14.28,14.28,0,0,1,2.75,0c.53.06.91.13,1.1.43a1.32,1.32,0,0,1-.08,1.18,3.08,3.08,0,0,1-1.61,1.41,14.27,14.27,0,0,1-4.15,1.31c-1.72.17-3,.24-3.93.29l.17,0a6.38,6.38,0,0,1,2,.51,6.19,6.19,0,0,1,2.1,1.09l.37-.06c1.66-.3,5.34-1,6.78-3.5A3.09,3.09,0,0,0,97.52,43.35Z"/><path class="cls-1" d="M85.75,69.38S82.39,66.25,81.64,64s.16-3.21.16-3.21V59.18s.07-.46-.46-.33a3.32,3.32,0,0,0-2.16,3.41C79.28,64.57,82.67,69,85.75,69.38Z"/><path class="cls-1" d="M82.46,50.7l.11,5.69a15.49,15.49,0,0,1,2,.8c.18.18,0-6.49,0-6.49Z"/><path class="cls-1" d="M82.55,59.68l-.09,4.55L84.65,67,84.54,61Z"/><path class="cls-1" d="M82.6,68.52a4.69,4.69,0,0,0,0,2.1c.11.44.42,1.7,1.07,1.76.48,0,1-.57,1.34-1.47l0-1.15Z"/><path class="cls-1" d="M94.85,25.43s2.28-4.08,1.42-3.8-2.45,3.07-3.45,3-1.25-3-1.25-3a11.37,11.37,0,0,0-.69,2c0,.48,1.69,1.62,1.69,1.62s-.13.31-.28.62a5.8,5.8,0,0,0-.29.93s-.39.62-1,1.41c0-.45-.86-1.31-1.1-2.41a1.6,1.6,0,0,1,.24-1.46A5.22,5.22,0,0,0,89,25.91a6.49,6.49,0,0,0,1.3,3.25l-.3.34c-1.14,1.29-3.83,6.72-3.9,6.83s2.59-3.77,4.75-6.7h0a13.11,13.11,0,0,0,4.12.69c.69-.1,1.14-1.35,1.14-1.35a1.57,1.57,0,0,0-.93.39c-.59.41-1.28.1-2.84-.39l-.81-.25a13,13,0,0,1,2.09-2.43c.9-.38,3.77,1.9,3.8,1.41S94.85,25.43,94.85,25.43Z"/><path class="cls-1" d="M90.16,24.31l.07-.06Z"/><path class="cls-1" d="M72.3,25.43s-2.28-4.08-1.42-3.8,2.45,3.07,3.45,3,1.24-3,1.24-3a10.58,10.58,0,0,1,.69,2c0,.48-1.69,1.62-1.69,1.62s.14.31.29.62a6.57,6.57,0,0,1,.28.93s.4.62,1,1.41c0-.45.86-1.31,1.1-2.41A1.56,1.56,0,0,0,77,24.31a5.07,5.07,0,0,1,1.21,1.6,6.37,6.37,0,0,1-1.29,3.25l.29.34c1.14,1.29,3.83,6.72,3.9,6.83s-2.58-3.77-4.74-6.7h0a13.11,13.11,0,0,1-4.12.69c-.69-.1-1.14-1.35-1.14-1.35a1.59,1.59,0,0,1,.93.39c.59.41,1.28.1,2.84-.39l.8-.25a12.66,12.66,0,0,0-2.09-2.43c-.9-.38-3.76,1.9-3.79,1.41S72.3,25.43,72.3,25.43Z"/><path class="cls-1" d="M77,24.31l-.06-.06Z"/><path class="cls-1" d="M44.75,81.62a2.58,2.58,0,0,0-.57-1.43,2,2,0,0,0-1.54-.6c-1.51,0-2.45,1.51-2.45,3.94s1,3.88,2.53,3.88a1.88,1.88,0,0,0,1.82-1.22,5.81,5.81,0,0,0,.36-1.48h1c-.23,2.51-1.3,3.77-3.17,3.77a2.86,2.86,0,0,1-2.43-1.11,6.18,6.18,0,0,1-1.13-3.83,6.43,6.43,0,0,1,1.1-3.85,2.91,2.91,0,0,1,2.46-1.17c1.72,0,2.69,1,3,3.1Z"/><path class="cls-1" d="M48.36,87.11H53v1.07H47.37V78.67h5.4v1.07H48.36v3h4.25v1.07H48.36Z"/><path class="cls-1" d="M60.45,88.18H59.33l-4-7.71h0v7.71h-.94V78.67h1.08l4.06,7.78h0V78.67h.94Z"/><path class="cls-1" d="M65,88.18H64V79.74H61.47V78.67h6.12v1.07H65Z"/><path class="cls-1" d="M69.79,88.18h-1V78.67h3.6a2.21,2.21,0,0,1,2.37,2.52,2.34,2.34,0,0,1-1.23,2.3,1.62,1.62,0,0,1,.77.68,3.5,3.5,0,0,1,.29,1.8,4.68,4.68,0,0,0,.13,1.39.94.94,0,0,0,.34.52v.3H73.85a3.75,3.75,0,0,1-.15-.6,6.64,6.64,0,0,1-.07-.9v-1c0-1.09-.42-1.64-1.29-1.64H69.79ZM72.19,83a1.44,1.44,0,0,0,1.13-.37,1.78,1.78,0,0,0,.4-1.28,1.72,1.72,0,0,0-.4-1.26,1.4,1.4,0,0,0-1.13-.37h-2.4V83Z"/><path class="cls-1" d="M82.11,87.48a3.27,3.27,0,0,1-2.42,1c-2.25,0-3.76-2-3.76-5s1.51-5,3.76-5a3.27,3.27,0,0,1,2.42,1,6.54,6.54,0,0,1,0,8Zm-2.42-7.89c-1.67,0-2.77,1.56-2.77,3.91s1.1,3.91,2.77,3.91,2.77-1.56,2.77-3.91S81.36,79.59,79.69,79.59Z"/><path class="cls-1" d="M87.77,78.67h3c2,0,3.18,1.8,3.18,4.75s-1.21,4.76-3.18,4.76h-3Zm2.83,8.44a2,2,0,0,0,1.77-1,6.61,6.61,0,0,0,0-5.46,2,2,0,0,0-1.77-1H88.77v7.37Z"/><path class="cls-1" d="M96.61,88.18h-1V78.67h1Z"/><path class="cls-1" d="M99.58,85.33l-.83,2.85H97.69l2.79-9.51h1.28l2.74,9.51h-1.11l-.81-2.85ZM101.12,80h0l-1.28,4.33h2.49Z"/><path class="cls-1" d="M112.23,88.24h-.63L111.35,87a3.16,3.16,0,0,1-2.66,1.51c-2.11,0-3.57-2-3.57-5a5.78,5.78,0,0,1,1.41-4.1,3.32,3.32,0,0,1,5.59,2.13h-1a2.21,2.21,0,0,0-2.26-2c-1.65,0-2.74,1.54-2.74,3.86a5.21,5.21,0,0,0,.83,3,2.41,2.41,0,0,0,2,1c1.42,0,2.44-1.22,2.44-2.92v-.26H109V83.16h3.25Z"/><path class="cls-1" d="M119.88,88.18h-1.12l-4-7.71h0v7.71h-.94V78.67h1.08l4.06,7.78h0V78.67h.94Z"/><path class="cls-1" d="M127.28,87.48a3.26,3.26,0,0,1-2.42,1c-2.25,0-3.76-2-3.76-5s1.51-5,3.76-5a3.26,3.26,0,0,1,2.42,1,6.54,6.54,0,0,1,0,8Zm-2.42-7.89c-1.66,0-2.77,1.56-2.77,3.91s1.11,3.91,2.77,3.91,2.78-1.56,2.78-3.91S126.53,79.59,124.86,79.59Z"/><path class="cls-1" d="M134.45,81.47a1.77,1.77,0,0,0-1.95-1.94,1.58,1.58,0,0,0-1.74,1.61,1.27,1.27,0,0,0,.35.93,2.47,2.47,0,0,0,.93.48l2,.64a2.35,2.35,0,0,1,1.66,2.38,3.11,3.11,0,0,1-.86,2.18,3,3,0,0,1-2.19.73A2.83,2.83,0,0,1,130,87.13a3.66,3.66,0,0,1-.46-2h.94v.08a2.37,2.37,0,0,0,.41,1.38,1.94,1.94,0,0,0,1.78.79,2.24,2.24,0,0,0,1.45-.4,1.78,1.78,0,0,0,.55-1.32c0-.74-.45-1.22-1.43-1.54l-1.94-.62a2.09,2.09,0,0,1-1.53-2.22,2.58,2.58,0,0,1,2.77-2.79,2.82,2.82,0,0,1,2,.68,2.89,2.89,0,0,1,.87,2.11v.16Z"/><path class="cls-1" d="M139.91,88.18h-1V79.74h-2.57V78.67h6.13v1.07h-2.57Z"/><path class="cls-1" d="M144.76,88.18h-1V78.67h1Z"/><path class="cls-1" d="M151.72,81.62a2.51,2.51,0,0,0-.56-1.43,2,2,0,0,0-1.54-.6c-1.51,0-2.45,1.51-2.45,3.94s1,3.88,2.53,3.88a1.88,1.88,0,0,0,1.82-1.22,5.45,5.45,0,0,0,.35-1.48h1c-.23,2.51-1.3,3.77-3.18,3.77a2.83,2.83,0,0,1-2.42-1.11,6.18,6.18,0,0,1-1.13-3.83,6.5,6.5,0,0,1,1.09-3.85,2.94,2.94,0,0,1,2.46-1.17c1.73,0,2.7,1,3,3.1Z"/><path class="cls-1" d="M160,87.48a3.26,3.26,0,0,1-2.42,1c-2.25,0-3.76-2-3.76-5s1.51-5,3.76-5a3.26,3.26,0,0,1,2.42,1,6.54,6.54,0,0,1,0,8Zm-2.42-7.89c-1.66,0-2.77,1.56-2.77,3.91s1.11,3.91,2.77,3.91,2.77-1.56,2.77-3.91S159.22,79.59,157.55,79.59Z"/><path class="cls-1" d="M40.43,91.37h1.75l3.65,10.52,3.49-10.52h1.77l-4.46,12.54H44.87Z"/><path class="cls-1" d="M55.85,91.37h2l4.57,12.54H60.56l-1.36-3.65H54.49l-1.21,3.65H51.39Zm2.82,7.42-1.74-5.26-2,5.26Z"/><path class="cls-1" d="M64.65,91.37H66.4v11h6.08v1.49H64.65Z"/><path class="cls-1" d="M80.48,91.37a3.25,3.25,0,0,1,.44,0l.45.06a5.31,5.31,0,0,1,2.82,1.76,6,6,0,0,1,1.27,4.08c0,.29,0,.57,0,.87s-.06.58-.11.88a7.68,7.68,0,0,1-1.39,3.35,4,4,0,0,1-3.45,1.51h-5V91.37Zm.39,10.93a2.22,2.22,0,0,0,2.06-1.43,7,7,0,0,0,.72-3.18v-.15a7,7,0,0,0-.84-3.23,2.65,2.65,0,0,0-2.47-1.46H77.1v9.45Z"/><path class="cls-1" d="M88.73,91.37h1.63v12.54H88.73Z"/><path class="cls-1" d="M93.43,97.12c0-.24.07-.49.12-.74A7.6,7.6,0,0,1,95.12,93,5.09,5.09,0,0,1,99,91.24a6.14,6.14,0,0,1,1,.09,5.34,5.34,0,0,1,1.13.34,5.24,5.24,0,0,1,1.7,1.26A5.51,5.51,0,0,1,104,95.42h-1.75a3.59,3.59,0,0,0-1.28-2,3.14,3.14,0,0,0-1.92-.67H99l-.11,0a3.75,3.75,0,0,0-2.49,1.33,5.15,5.15,0,0,0-1.21,3.51,5.71,5.71,0,0,0,1.15,4,3.47,3.47,0,0,0,2.51,1.24h0a3.76,3.76,0,0,0,2.47-1,3.45,3.45,0,0,0,1.23-2.53h1.75c0,.15,0,.3-.08.46a2.89,2.89,0,0,1-.11.47,6.48,6.48,0,0,1-1.72,2.79,4.39,4.39,0,0,1-3.21,1.27,4.89,4.89,0,0,1-4.37-1.88,7.53,7.53,0,0,1-1.44-4.58Z"/><path class="cls-1" d="M107.32,91.37h1.61v5.26h6.33V91.37h1.63v12.54h-1.63V98.24h-6.33v5.67h-1.61Z"/><path class="cls-1" d="M120.83,91.37h1.63v12.54h-1.63Z"/><path class="cls-1" d="M129.53,91.37h2l4.57,12.54h-1.88l-1.35-3.65h-4.71L127,103.91h-1.88Zm2.83,7.42-1.75-5.26-2,5.26Z"/><path class="cls-1" d="M138.47,91.37h2l6.2,10.11V91.37h1.63v12.54h-1.9l-6.34-10v10h-1.61Z"/><path class="cls-1" d="M155.1,91.37h2l4.58,12.54h-1.89l-1.35-3.65h-4.71l-1.22,3.65h-1.88Zm2.83,7.42-1.75-5.26-2,5.26Z"/><path class="cls-1" d="M200,123H0V0H200ZM2.6,120.75H197.37V2.25H2.6Z"/><rect class="cls-1" x="-3" y="1.4" width="13" height="122.81"/><rect class="cls-1" x="190" y="0.1" width="13" height="122.81"/><rect class="cls-1" x="98.46" y="-96.19" width="13" height="199.23" transform="translate(101.54 108.38) rotate(-90)"/><rect class="cls-1" x="95.81" y="19.97" width="13" height="199.23" transform="translate(-17.28 221.89) rotate(-90)"/></svg>